<svg width="24" height="24" viewBox="0 0 24 24" fill="none" xmlns="http://www.w3.org/2000/svg">
<path d="M11.9985 2.01416C10.7055 2.01416 9.24755 5.96416 9.06055 11.0142H14.9365C14.7495 5.96516 13.2915 2.01416 11.9985 2.01416ZM8.84253 2.51416C5.15553 3.74316 2.37954 7.11516 2.02954 11.0142H7.06055C7.17155 7.57516 7.79253 4.52516 8.84253 2.51416ZM15.1545 2.51416C16.2045 4.52516 16.8255 7.57516 16.9365 11.0142H21.9365C21.5745 7.06916 18.8775 3.76516 15.1545 2.51416ZM2.06055 13.0142C2.42055 17.0212 5.20254 20.3042 8.87354 21.5142C7.82454 19.5032 7.17155 16.4532 7.06055 13.0142H2.06055ZM9.06055 13.0142C9.24755 18.0632 10.7055 22.0142 11.9985 22.0142C13.2915 22.0142 14.7495 18.0642 14.9365 13.0142H9.06055ZM16.9365 13.0142C16.8255 16.4532 16.1725 19.5032 15.1235 21.5142C18.8945 20.2312 21.5685 16.8942 21.9365 13.0142H16.9365Z" fill="#2A343D"/>
</svg>
