<svg xmlns="http://www.w3.org/2000/svg" viewBox="0 0 64 64" id="message">
  <path fill="#f28a6d" d="M7,41a1,1,0,0,0,1-1V36a1,1,0,0,0-2,0v4A1,1,0,0,0,7,41Z" class="color231f20 svgShape"></path>
  <path fill="#f28a6d" d="M53,13H11a5,5,0,0,0-5,5V32a1,1,0,0,0,2,0V18a3,3,0,0,1,.69-1.89L28.46,35.88a5,5,0,0,0,7.08,0L55.31,16.11A3,3,0,0,1,56,18V46a3,3,0,0,1-3,3H11a3,3,0,0,1-3-3V44a1,1,0,0,0-2,0v2a5,5,0,0,0,5,5H53a5,5,0,0,0,5-5V18A5,5,0,0,0,53,13ZM34.12,34.46a3,3,0,0,1-4.24,0L10.47,15.05A3.07,3.07,0,0,1,11,15H53a3.07,3.07,0,0,1,.53.05Z" class="color231f20 svgShape"></path>
</svg>
