<svg width="24" height="24" viewBox="0 0 24 24" fill="none" xmlns="http://www.w3.org/2000/svg">
<path fill-rule="evenodd" clip-rule="evenodd" d="M21.9908 11.432C22.2123 6.16346 18.421 1.6581 13.1771 1.06723C7.12079 0.377885 2 5.08021 2 11.0135C2 17.4884 7.24388 22.7324 13.7187 22.7324L13.6941 22.7078C12.9063 21.6245 13.4725 20.0735 14.7774 19.778C18.8149 18.7933 21.7938 15.7651 21.9908 11.432ZM8.87622 8.45142C8.87622 7.89913 9.32394 7.45142 9.87622 7.45142H14.1108C14.6631 7.45142 15.1108 7.89913 15.1108 8.45142C15.1108 9.0037 14.6631 9.45142 14.1108 9.45142H9.87622C9.32394 9.45142 8.87622 9.0037 8.87622 8.45142ZM8.74414 11.5625C8.19186 11.5625 7.74414 12.0102 7.74414 12.5625C7.74414 13.1148 8.19186 13.5625 8.74414 13.5625H15.2191C15.7713 13.5625 16.2191 13.1148 16.2191 12.5625C16.2191 12.0102 15.7713 11.5625 15.2191 11.5625H8.74414Z" fill="#292941"/>
</svg>
