<svg width="24" height="24" viewBox="0 0 24 24" fill="none" xmlns="http://www.w3.org/2000/svg">
<path fill-rule="evenodd" clip-rule="evenodd" d="M20.409 5.48211L13.291 1.37284C12.4307 0.875721 11.3693 0.875721 10.509 1.37284L3.391 5.48211C2.53069 5.97842 2 6.89659 2 7.89084V16.1092C2 17.1035 2.53069 18.0217 3.391 18.5179L10.509 22.6272C11.3693 23.1243 12.4307 23.1243 13.291 22.6272L20.409 18.5179C21.2693 18.0216 21.8 17.1034 21.8 16.1092V7.89084C21.8 6.89652 21.2693 5.97832 20.409 5.48211ZM7.95882 11.9998C7.95882 14.1766 9.72294 15.9406 11.9 15.9406C14.0771 15.9406 15.8412 14.1766 15.8412 11.9998C15.8412 9.82299 14.0771 8.05906 11.9 8.05906C9.72294 8.05906 7.95882 9.82299 7.95882 11.9998Z" fill="#8A8CA9"/>
</svg>
